<?xml version="1.0" encoding="UTF-8" standalone="no"?>
<!-- Created with Inkscape (http://www.inkscape.org/) -->

<svg
   version="1.1"
   id="svg129"
   width="40"
   height="40"
   viewBox="0 0 128 128"
   sodipodi:docname="flame.svg"
   inkscape:export-filename="vukkyl.svg"
   inkscape:export-xdpi="96"
   inkscape:export-ydpi="96"
   inkscape:version="1.2 (dc2aedaf03, 2022-05-15)"
   xmlns:inkscape="http://www.inkscape.org/namespaces/inkscape"
   xmlns:sodipodi="http://sodipodi.sourceforge.net/DTD/sodipodi-0.dtd"
   xmlns="http://www.w3.org/2000/svg"
   xmlns:svg="http://www.w3.org/2000/svg">
  <defs
     id="defs133" />
  <sodipodi:namedview
     id="namedview131"
     pagecolor="#505050"
     bordercolor="#eeeeee"
     borderopacity="1"
     inkscape:showpageshadow="0"
     inkscape:pageopacity="0"
     inkscape:pagecheckerboard="0"
     inkscape:deskcolor="#505050"
     showgrid="false"
     inkscape:zoom="7.0286414"
     inkscape:cx="63.596928"
     inkscape:cy="87.783679"
     inkscape:window-width="1920"
     inkscape:window-height="1007"
     inkscape:window-x="0"
     inkscape:window-y="0"
     inkscape:window-maximized="1"
     inkscape:current-layer="layer3" />
  <g
     inkscape:groupmode="layer"
     id="layer3"
     inkscape:label="Flamey"
     style="fill:#000000;fill-opacity:1">
    <path
       id="path1568"
       style="fill:#000000;fill-opacity:1;stroke-width:1.00313;stroke-dasharray:none"
       d="m 88.888373,125.29363 c -0.663274,0.10031 -1.324438,0.23115 -1.970521,0.41686 -0.187926,0.0296 -0.642133,0.0284 0.291291,0.026 0.03668,-1e-4 -0.07329,-0.006 -0.109209,-0.014 -0.08532,-0.0181 -0.168567,-0.0457 -0.254055,-0.0629 -0.105275,-0.0213 -0.211867,-0.0348 -0.317801,-0.0521 -1.122214,-0.15008 -2.261651,-0.11698 -3.390935,-0.0896 -0.95651,0.0879 -1.91011,0.20666 -2.867456,0.28873 -0.524622,-0.005 -1.05329,0.14909 -1.579004,0.10925 -0.0605,-0.005 0.23954,-0.005 0.180887,-0.0207 -0.11162,-0.0303 -0.230385,-0.0159 -0.345578,-0.024 -0.953246,-0.15146 -1.909711,-0.25187 -2.874568,-0.23894 -0.837149,-0.0165 -1.666069,0.10201 -2.50138,0.129 0.122779,-10e-4 0.246677,0.0128 0.36834,-0.004 0.06784,-0.009 -0.137147,-0.006 -0.2046,-0.0186 -0.08259,-0.0147 -0.164001,-0.0368 -0.244261,-0.0617 -0.47678,-0.14797 -0.475155,-0.19051 -1.022916,-0.34441 -0.23443,-0.0659 -0.473591,-0.11249 -0.710387,-0.16874 -1.148247,-0.24261 -2.320139,-0.21844 -3.485139,-0.22035 -0.100494,0.009 -0.205751,0.0596 -0.301479,0.0268 -0.08428,-0.0288 0.34138,0.004 0.263595,-0.0398 -0.123625,-0.0699 -0.280537,-0.0323 -0.420737,-0.0491 -0.196738,-0.0236 -0.393323,-0.0484 -0.590078,-0.0718 -0.880441,-0.10464 -0.519682,-0.067 -1.425285,-0.13859 -0.642325,-0.0538 -1.287974,-0.0758 -1.9324,-0.0622 -0.319862,0.007 -0.635169,0.044 -0.954655,0.0448 -0.10953,-0.0178 -0.219437,-0.0333 -0.328587,-0.0534 -0.433602,-0.0799 -0.528236,-0.12051 -1.004843,-0.18542 -0.617164,-0.084 -1.235707,-0.0968 -1.856994,-0.10701 -0.643133,0.0321 -1.288301,3.2e-4 -1.930189,0.0595 -0.111845,0.0103 -0.244581,-0.0278 -0.334479,0.0413 -0.0787,0.0605 0.34129,0.0782 0.294717,-0.0107 -0.04986,-0.0951 -0.209761,-0.0182 -0.314642,-0.0273 -1.162322,-0.19844 -2.33871,-0.18298 -3.51202,-0.16429 -0.718477,0.0637 -0.03236,0.008 -0.72908,0.05 -0.08697,0.005 0.338889,0.0292 0.261163,-0.0112 -0.09779,-0.0508 -0.218941,-0.0128 -0.328054,-0.0236 -0.291211,-0.0288 -0.581112,-0.0702 -0.871701,-0.10499 -1.311185,-0.0938 -2.628777,-0.12138 -3.943031,-0.0919 -0.924428,0.0489 -1.849325,0.0859 -2.771283,0.1717 -0.653615,0.0941 -1.311636,0.0323 -1.967908,0.0377 -0.426211,0.003 -0.903553,0.0267 -1.329092,0.0443 -0.946071,0.0476 -1.971529,0.10759 -2.671412,0.13559 -0.96003,-0.0281 -1.919936,-0.0516 -2.880319,-0.064 -1.398468,-0.005 -2.794747,-0.0551 -4.192957,-0.0115 -0.618214,0.0675 -1.438966,-0.0767 -2.377433,-0.14018 -0.703762,-0.0343 -1.408973,-0.0189 -2.112975,-0.005 -0.157245,0.003 -0.315492,0.0343 -0.471603,0.0146 -0.02624,-0.003 -0.01714,-0.0513 -0.02572,-0.077 -0.271709,-0.0299 -0.543417,-0.0597 -0.815127,-0.0895 -1.623193,-0.13157 -3.249744,-0.18478 -4.877089,-0.21543 -0.667495,0.002 -1.332276,-0.0699 -1.998278,-0.0975 -1.46677,-0.0416 -0.807649,-0.0168 -1.977591,-0.0676 -0.814354,0.007 -1.629072,-0.0137 -2.443166,0.018 -0.233422,0.009 -0.467247,0.0171 -0.69958,0.0419 -0.02094,0.002 0.03837,0.0178 0.05755,0.0267 -0.155084,0.001 -0.310171,0.003 -0.465256,0.004 -0.846797,-0.0311 -1.689611,-0.11209 -2.532052,-0.20021 -1.021738,-0.10011 -2.0483639,-0.0764 -3.0712644,-0.1553 -0.873381,-0.0906 -1.7530158,-0.14824 -2.6313215,-0.1191 -0.4843775,0.0161 -0.9673991,0.0617 -1.4511873,0.091 -0.1718212,0.0166 -0.3265612,0.0894 -0.4891424,0.13976 -0.2242011,0.0694 -1.0430181,-0.0689 0.6718913,0.0731 -0.3218609,-0.17992 -0.6697517,-0.26494 -1.0295259,-0.31871 -0.1564939,-0.006 -0.9134185,-0.17153 -1.0039484,-0.0813 0.6018986,0.39782 -0.06416,-0.10253 0.6223216,0.79226 0.020376,0.0265 0.046965,-0.0504 0.057484,-0.0825 0.034847,-0.10613 0.055394,-0.2168 0.076833,-0.32662 0.054243,-0.27785 0.093231,-0.55861 0.1419471,-0.83754 0.095549,-0.5986 0.1524466,-1.20427 0.095068,-1.80933 -0.00457,-0.0424 -0.035978,-0.31339 -0.033703,-0.36779 0.00366,-0.0876 0.041088,-0.17025 0.056157,-0.25651 0.066126,-0.37853 0.042974,-0.22936 0.088501,-0.6263 0.1110846,-0.66801 0.2420167,-1.33182 0.3215858,-2.00474 0.041747,-0.57885 0.1273555,-1.15032 0.1507598,-1.73075 -0.015886,-0.77695 -0.1477844,-1.54425 -0.184629,-2.32106 -0.014914,-0.81777 0.092156,-1.62914 0.1739448,-2.44076 0.1832221,-1.0157 0.043522,-2.01362 -0.1770839,-3.00688 -0.1592432,-0.70536 -0.1761254,-1.42785 -0.2148331,-2.14658 -0.00652,-0.641 -0.062024,-1.27993 -0.059602,-1.92101 0.020092,-0.75168 -0.079144,-1.50073 -0.1275473,-2.25041 -0.027049,-0.58299 -0.041651,-1.16512 -0.026276,-1.7486 0.032372,-0.617659 0.031451,-1.232408 -0.028542,-1.847941 -0.085948,-0.543786 -0.1455386,-1.084998 -0.1443662,-1.636106 0.012718,-0.372263 0.00726,-0.745162 0.01744,-1.117429 0.0029,-0.06496 -2.487e-4,-0.130491 0.00871,-0.19486 0.022931,-0.164862 0.080326,-0.323104 0.1071341,-0.487349 0.064948,-0.397927 0.087722,-0.800362 0.1091963,-1.202522 0.034241,-0.538718 0.1089611,-1.068714 0.2547709,-1.587693 0.2771178,-0.769101 0.4386325,-1.577331 0.5573332,-2.386543 0.042169,-0.501601 0.1379213,-0.989937 0.1569003,-1.494237 0.1578807,-0.832986 0.1721873,-1.685911 0.1565475,-2.531511 -0.033887,-0.582206 -0.060231,-1.163107 -0.048084,-1.746396 0.02716,-0.694566 0.019415,-1.385542 -0.072974,-2.074527 C 4.2473707,81.258806 4.2566954,80.714138 4.1991357,80.17452 4.1201609,79.68656 4.0617419,79.196241 4.0229049,78.703219 3.9621385,78.168869 3.8112359,77.648382 3.812298,77.107901 3.854284,76.549039 3.849412,75.995199 3.768225,75.440555 3.683025,74.983629 3.691928,74.520619 3.699252,74.058463 3.747347,73.543624 3.604902,73.042618 3.5565502,72.534897 3.5312022,72.101237 3.5213182,71.672366 3.4492549,71.242802 3.4096839,70.88946 3.3555459,70.54055 3.2625653,70.197707 c -0.04848,-0.142366 -0.021275,-0.28956 -0.00988,-0.43611 0.022728,-0.248956 0.024858,-0.498949 0.016417,-0.748629 0.031142,-0.320958 -0.024573,-0.630082 -0.1164397,-0.935903 -0.045824,-0.193377 -0.079219,-0.389995 -0.1204959,-0.584876 -0.00405,-0.02718 -0.00811,-0.05436 -0.01216,-0.08153 -0.022325,-0.148393 -2.06657726,0.175736 -2.04425136,0.32413 v 0 c 0.011887,0.06152 0.023774,0.123044 0.035661,0.184566 0.00219,0.0084 0.047734,0.198711 0.066935,0.233438 0.00296,0.0054 0.00884,-0.02141 0.00992,-0.01537 0.02789,0.155971 0.025721,0.319119 0.08226,0.469852 0.01006,0.0323 0.016663,0.12344 0.034944,0.09519 0.00534,-0.0082 0.00182,-0.03954 0.00244,-0.02964 0.00747,0.120765 0.00566,0.24234 0.019614,0.362777 -0.00368,0.200458 -0.01902,0.400159 -0.03484,0.59995 -0.02104,0.335172 -0.023915,0.672493 0.051944,1.001748 0.064924,0.293329 0.066933,0.587864 0.1084639,0.886018 0.02107,0.159919 0.059728,0.327405 0.068012,0.488506 0.012534,0.243753 -0.018161,0.49003 0.017899,0.733071 0.052602,0.422359 0.1428992,0.844565 0.1080582,1.272389 -0.014838,0.55974 0.00626,1.120185 0.091743,1.674079 0.022166,0.1908 0.063936,0.390967 0.060602,0.583855 -0.005,0.289023 -0.060022,0.576828 -0.039194,0.866922 0.018771,0.602144 0.065135,1.201262 0.2081753,1.788136 0.074962,0.487136 0.1605486,0.966116 0.1661994,1.461717 0.065886,0.542889 0.1091586,1.087113 0.1787779,1.629638 0.066264,0.623728 0.00391,1.249612 0.049108,1.875463 0.030431,0.554773 0.05914,1.110198 0.00383,1.664728 -0.059608,0.856651 -0.1366596,1.7185 -0.063588,2.576768 0.026985,0.445344 -0.080514,0.678976 -0.2193502,1.108915 -0.1917742,0.752832 -0.3026143,1.520498 -0.4511303,2.282609 -0.1656854,0.64526 -0.3766997,1.282071 -0.3953339,1.956694 -0.046739,0.656607 -0.1081122,1.314764 -0.072358,1.973547 -0.00199,0.372775 -0.083014,0.742988 -0.090312,1.116222 -0.01943,0.636963 0.00908,1.274294 0.10685686,1.904587 0.026541,0.176525 0.065982,0.351485 0.079947,0.529524 0.026217,0.334233 -0.00518,0.673446 -0.00586,1.007912 -0.035154,0.64772 -0.1032423,1.29653 -0.058366,1.94565 0.041821,0.71844 0.1525846,1.431 0.1645046,2.15121 0.015876,0.64373 0.022892,1.28782 0.070163,1.93029 -0.026578,0.85254 -0.053185,1.70461 0.1742853,2.53737 0.1616106,0.77766 0.2506479,1.54089 0.1797272,2.33861 -0.1411454,0.92618 -0.2993762,1.85215 -0.1974191,2.7943 0.042937,0.72518 0.1279916,1.44446 0.2642411,2.15781 -0.0078,0.50993 -0.078202,1.00839 -0.1679266,1.50943 -0.1214425,0.6956 -0.228322,1.39285 -0.3292006,2.09193 -0.042303,0.51396 -0.087641,1.03919 0.00207,1.54981 -0.03033,0.48013 -0.2453156,0.93311 -0.28284156,1.41357 -0.049928,0.42404 -0.084761,0.83631 -0.078551,1.26372 0.00179,0.12302 -0.023989,0.25163 0.012325,0.36889 0.089692,0.28959 0.19158546,0.58349 0.36002976,0.83338 0.081915,0.12153 0.2422021,0.15981 0.3633032,0.2397 0.3049328,0.0934 0.6404035,0.0792 0.9517307,0.15861 0.086517,0.0113 0.1724315,0.0297 0.2595497,0.0339 0.1762082,0.008 0.067581,-0.0197 0.201247,-0.0424 0.107272,-0.0182 0.2150128,0.0404 0.3065047,0.0842 0.2952157,0.0362 0.5896521,0.0798 0.8856474,0.10853 0.028926,0.003 0.057058,-0.0122 0.086035,-0.0143 0.1473655,-0.0112 0.2876868,0.13753 0.4383796,0.0918 -0.075365,0.0158 -0.2991562,0.0227 -0.2260927,0.0474 0.1519718,0.0513 0.3187899,0.0289 0.4785346,0.0379 0.8556886,0.0483 1.713554,0.0477 2.5701683,0.0535 1.0171149,0.035 2.0339407,0.0532 3.0507389,0.10052 0.843986,0.037 1.69192,0.041 2.524781,0.205 1.624093,0.24917 3.274669,0.17024 4.909413,0.10954 0.241464,-0.0182 0.482929,-0.0363 0.724393,-0.0545 4.32e-4,-0.0134 -0.01166,-0.0385 0.0013,-0.0401 0.622009,-0.0787 1.242386,0.046 1.855961,0.13015 1.629804,0.23651 3.278359,0.40229 4.925001,0.40014 1.378293,-0.0507 2.342856,-0.11973 3.450391,-0.0609 0.500642,0.0178 1.006658,0.0195 1.505567,0.0699 0.158676,0.0161 0.315067,0.0533 0.474083,0.0653 0.640185,0.0481 1.070483,0.0533 1.668467,0.067 1.024176,0.0268 2.048075,0.0182 3.07172,-0.0295 0.0177,-8.3e-4 -0.0351,-0.005 -0.05264,-0.007 0.955788,-0.0102 1.911935,-0.0121 2.867553,0.0106 1.317515,0.0898 2.645356,0.0366 3.963631,-0.009 1.10726,-0.0671 2.213839,-0.12838 3.316039,-0.26029 0.893086,-0.0734 1.782481,-0.0193 2.677225,-0.009 0.190776,-0.002 1.017346,-0.007 1.207753,-0.023 0.01223,-10e-4 -0.02943,-0.0325 -0.01718,-0.0334 0.475543,-0.0347 0.953919,0.0429 1.42961,0.0249 0.426293,0.009 0.847712,0.0505 1.272735,0.0676 0.553538,0.0222 1.106136,0.001 1.658481,0.0383 -0.05026,0.005 -0.201088,0.0113 -0.150773,0.0161 0.11981,0.0114 0.884697,0.0216 0.988874,0.0233 1.574809,0.0266 -0.521961,-0.0125 0.976192,0.0282 0.150226,0.004 0.300534,0.004 0.450801,0.006 0.926021,0.0602 1.848511,0.0163 2.309844,0.0924 1.042429,0.064 2.084133,0.13073 3.129224,0.10371 0.204121,0.0415 0.406375,0.0935 0.611989,0.12628 0.736293,0.11736 1.48646,0.15354 2.226542,0.23412 0.681353,0.0505 0.845088,0.0771 1.531302,0.0694 0.748871,-0.008 1.497174,-0.0966 2.246732,-0.0807 -0.112208,-7.2e-4 -0.231281,-0.0419 -0.336623,-0.002 -0.0792,0.0299 0.167817,0.0191 0.250831,0.0345 0.468666,0.0869 0.934284,0.17903 1.405142,0.25591 0.217266,0.0355 0.434424,0.0717 0.651636,0.10748 0.594866,0.0892 1.196383,0.13808 1.788885,0.24135 0.03345,0.006 0.623294,0.13313 0.690277,0.13871 0.297191,0.0247 0.595761,0.0268 0.893641,0.0401 0.296009,-0.006 0.591932,-0.0144 0.887902,-0.0222 0.151447,-0.004 0.50062,-0.0169 0.650071,-0.002 0.06483,0.006 -0.130156,0.005 -0.195234,0.007 0.909963,0.0277 1.819206,0.0615 2.723006,0.18323 0.833399,0.0933 0.251684,0.0469 1.451842,0.0491 0.596339,0.001 1.195133,0.0143 1.787577,-0.0735 0.895589,-0.11657 1.794798,-0.21018 2.697699,-0.237 0.880273,-0.003 1.175343,-0.0193 2.130693,-0.0624 0.162177,-0.006 0.323922,-0.0317 0.486143,-0.027 0.0615,0.002 0.121202,0.0234 0.182575,0.0279 0.409962,0.0297 0.802386,0.0592 1.207812,0.005 0.78785,-0.0677 1.579282,-0.21444 2.273385,-0.62489 0.125955,-0.0819 -1.001892,-1.91048 -1.127846,-1.82862 z M 125.00574,88.855187 c -0.12371,0.762733 -0.006,1.548345 0.14234,2.29988 0.0712,0.206327 0.0613,0.385318 0.0295,0.594569 -0.0689,0.496747 -0.0776,0.999959 -0.0584,1.500572 -0.0866,0.554321 -0.16308,1.106007 -0.19196,1.667495 -0.033,0.414101 0.0412,0.826527 0.0336,1.240209 -8e-4,0.04327 -0.0327,0.380755 -0.0362,0.419413 -0.10048,0.669127 -0.14108,1.345675 -0.16693,2.021577 -0.0203,0.797486 -0.13205,1.584508 -0.22198,2.375118 -0.0471,0.75413 -0.19946,1.49487 -0.27731,2.24538 -0.0773,0.7228 -0.047,1.44808 -0.024,2.1724 0.0278,0.71882 0.0126,1.43734 0.0166,2.15641 -0.009,0.22782 0.0173,0.45583 0.0107,0.68363 -0.004,0.13483 -0.0248,0.26886 -0.027,0.40374 -0.008,0.47802 0.0387,0.95631 0.085,1.4311 0.0653,0.69644 0.11506,1.39505 0.12144,2.09486 -0.0141,0.58235 -0.0409,1.16408 -0.0585,1.74646 0.0269,0.81006 0.12218,1.61715 0.21267,2.42213 0.0898,0.55189 0.15161,1.10434 0.14276,1.66398 -0.0221,0.53124 -0.0493,1.06093 -0.0506,1.59281 -0.009,0.52919 0.0155,1.05782 0.0192,1.58683 0.018,0.52884 -0.0101,1.05784 -0.0232,1.58662 0.0165,0.59867 -0.0289,1.19264 -0.0774,1.78826 -0.0293,0.31221 -0.0377,0.62504 0.005,0.93599 0.0437,0.29938 -0.0295,0.0861 0.0113,-0.0985 0.0118,-0.0531 0.0318,-0.10388 0.0477,-0.15581 -0.009,0.005 -0.0182,0.0102 -0.0273,0.015 -0.0191,0.0127 -0.0382,0.0253 -0.0572,0.038 -0.004,-0.0119 -0.002,-0.0412 -0.013,-0.0356 -9.3e-4,4.8e-4 -0.17546,0.18485 -0.21001,0.1295 0.17071,-0.26545 -0.15964,0.17098 -0.15936,0.106 1.2e-4,-0.0258 0.11743,-0.11284 0.11306,-0.11321 -0.0803,-0.007 -0.15136,0.058 -0.2297,0.0775 -0.073,0.0375 -0.1422,0.084 -0.219,0.1125 -0.10176,0.0377 -0.5109,-0.0128 -0.63344,-0.0162 0.13057,-6.2e-4 0.26127,-0.008 0.39172,-0.002 0.064,0.003 -0.12685,0.0206 -0.19086,0.0226 -0.13514,0.004 -0.27383,-0.0358 -0.40717,-0.0547 -0.50083,-0.0627 -1.00543,-10e-4 -1.50743,-0.008 -0.23547,0.0254 -0.45319,0.13334 -0.6833,0.18044 -0.146,0.0299 -0.30386,0.004 -0.4509,-9.4e-4 -0.0633,-0.005 -0.25178,-0.002 -0.18974,-0.0157 0.10074,-0.0222 0.21463,0.0321 0.30892,-0.0105 0.0785,-0.0355 -0.17121,-0.009 -0.25687,-0.013 -0.24153,-0.009 -0.48313,-0.008 -0.72473,-0.0156 -0.53552,-0.0293 -1.07069,-0.0102 -1.60458,0.0341 -0.0431,-0.001 -0.0863,-0.003 -0.12933,-0.004 -0.3728,-0.0109 0.12107,0.006 -0.31451,-0.015 -0.0636,-0.003 -0.25435,-0.006 -0.19074,-0.006 0.47028,0.002 0.59237,0.039 0.23189,-0.0337 -0.70282,-0.17624 -1.42053,-0.15984 -2.13761,-0.14426 0.1442,7.9e-4 0.28855,0.009 0.43261,0.002 0.0491,-0.002 -0.0982,-0.008 -0.14691,-0.0151 -0.27657,-0.0404 -0.53861,-0.10011 -0.80698,-0.18041 -0.7178,-0.17902 -1.46399,-0.19421 -2.19112,-0.0673 -0.45112,0.0172 -0.88158,0.16125 -1.3335,0.1648 -0.12237,-0.0172 -0.93542,0.052 -0.15523,0.007 0.0746,-0.004 -0.14934,0.002 -0.22398,1.5e-4 -0.16187,-0.003 -0.33606,-0.0146 -0.49732,-0.0239 -0.43332,-0.0138 -0.86902,-0.0129 -1.30016,0.0445 -0.18346,0.0245 -0.38337,0.15619 -0.55242,0.23361 -0.57737,-0.18299 0.63688,-0.0384 0.133,-0.0794 -0.0609,-0.005 -0.12149,-0.0138 -0.18224,-0.0206 -0.71061,-0.15361 -1.39769,0.0874 -2.09952,0.12689 -0.13758,-0.0267 -0.83081,0.0869 -0.0688,0.003 0.0692,-0.008 -0.13926,0.002 -0.20888,6.6e-4 -0.075,-0.001 -0.14974,-0.0102 -0.22469,-0.009 -0.28122,0.004 -0.56229,0.0152 -0.84342,0.0229 -0.38528,0.0436 -0.76612,0.15518 -1.1539,0.17495 0.14415,-0.004 0.57636,-0.0218 0.43245,-0.0123 -0.25772,0.0169 -0.51643,0.0157 -0.774,0.0348 -0.22533,0.0167 -0.45,0.0901 -0.67463,0.12045 -0.18069,-0.0208 -0.52332,0.0277 0.24466,-0.0183 0.0482,-0.003 -0.0965,-0.005 -0.14457,-0.0102 -0.46833,-0.041 0.0921,-7.8e-4 -0.41168,-0.0347 -0.52677,-0.009 -1.05434,-0.0207 -1.58053,0.0121 -0.21799,2e-4 -0.74977,0.0185 0.2269,0.009 0.0325,-3.1e-4 -0.0648,-0.006 -0.0968,-0.0118 -0.0833,-0.0146 -0.21876,-0.0495 -0.29745,-0.0688 -0.3415,-0.0906 -0.68794,-0.11135 -1.032254,-0.17904 -0.312169,-0.0509 -0.623653,-0.18924 -0.942024,-0.20284 -0.235574,-0.0102 -0.471537,-0.004 -0.707307,-0.006 0.195712,0.007 0.39213,0.003 0.587135,0.0219 0.02853,0.003 0.06921,0.0126 0.07604,0.0413 0.0062,0.0259 -0.04844,-0.0195 -0.07296,-0.0284 -0.05916,-0.0214 -0.117549,-0.0456 -0.178088,-0.0626 -0.123737,-0.0345 -0.228256,-0.0419 -0.355477,-0.057 -0.519298,-0.0688 -1.040507,0.0166 -1.559743,0.007 -0.05396,-4.6e-4 -0.107942,-3e-5 -0.161892,-0.001 -0.0083,-2e-4 -0.40784,-0.0159 -0.396114,-0.0174 0.103055,-0.0126 0.207572,-0.003 0.311347,-0.002 0.06919,9.8e-4 -0.138376,0.003 -0.207576,0.003 -0.0705,2.1e-4 -0.14099,-10e-4 -0.211486,-0.002 -0.568021,0.004 -1.136091,-2.6e-4 -1.70415,0.006 -0.342159,0.0195 -0.684423,0.003 -1.026695,-6.1e-4 0.834014,-0.0146 -0.09572,0.0281 -0.267337,0.0315 -0.442167,0.0234 -0.882221,-0.0215 -1.323537,-0.0273 -0.185643,-0.006 -0.208866,-0.008 -0.395394,-0.007 -0.06331,2.2e-4 -0.253155,-8.1e-4 -0.189932,0.003 0.767554,0.0429 0.166993,0.005 0.0042,0.006 -0.492762,0.0106 -0.985423,-0.006 -1.47835,0.007 -0.20985,0.0172 -1.04843,0.022 -0.115595,0.0223 -0.122823,-0.004 -0.06062,-0.002 -0.186604,-0.004 -0.140026,-0.0369 -0.648483,1.99601 -0.508457,2.03292 v 0 c 0.127187,-0.002 0.06426,-4.6e-4 0.188761,-0.004 0.380394,7e-5 0.759529,0.001 1.139339,0.0223 0.254758,0.007 0.237605,0.005 -0.206971,0.006 -0.05613,1.6e-4 0.112275,-5.2e-4 0.168406,-0.001 0.28818,-0.005 0.04282,-0.006 0.315624,-1.1e-4 0.05423,10e-4 0.108489,0.002 0.162734,0.003 0.541383,0.004 1.08305,0.0158 1.624284,10e-4 0.156075,-0.002 0.188945,-7e-4 0.342868,-0.0102 0.04796,-0.003 0.09574,-0.008 0.143717,-0.0111 0.03746,-0.002 0.150024,-0.002 0.112516,-0.002 -0.275128,-0.005 -0.577452,-5.8e-4 -0.306275,-0.004 0.433545,0.009 0.865265,0.0689 1.300161,0.0323 0.342624,-0.004 0.685205,-0.0207 1.027773,-0.003 0.489525,0.004 -0.103035,-0.001 -0.149577,-1.4e-4 -0.06098,0.001 0.121929,0.004 0.182911,0.005 0.38581,0.008 0.01153,-10e-4 0.408221,0.001 0.06722,4.1e-4 0.134436,0.003 0.201654,0.004 0.583617,-5.6e-4 1.167449,0.0165 1.750418,-0.0216 0.154939,-0.008 0.307078,-0.007 0.462146,-0.004 0.05482,0.001 0.219325,0.003 0.164488,0.003 -0.117816,-5.7e-4 -0.235823,0.003 -0.353429,-0.004 -0.05395,-0.003 0.108,-0.005 0.162,-0.008 0.01749,-10e-4 0.206698,-0.0115 0.240222,-0.0286 0.02872,-0.0146 -0.0065,-0.0609 0.0418,-0.0456 0.478351,0.15106 -0.417841,0.0343 0.81842,0.0917 -1.184775,-0.0274 -0.639922,-0.054 -0.466787,3.5e-4 0.206936,0.0649 0.409491,0.14501 0.620169,0.19752 0.628046,0.16136 0.03056,0.0272 0.525925,0.095 0.0805,0.011 0.158444,0.0394 0.239348,0.0466 0.0605,0.005 0.11849,-0.0321 0.17828,-0.0326 0.034,-2.8e-4 0.0674,0.0102 0.10104,0.0145 0.175144,0.0428 0.363084,0.12841 0.540514,0.14841 0.38154,0.043 0.70879,0.0586 1.07386,0.0451 0.17034,0.005 0.66038,-0.004 -0.10037,0.0111 -0.0545,0.001 0.10895,2.3e-4 0.16337,0.002 0.12554,0.005 0.25066,0.0187 0.37646,0.0176 0.54996,0.007 1.10486,0.0385 1.65081,-0.0375 0.16647,-0.0241 0.33237,-0.0518 0.4988,-0.0761 0.044,-0.006 0.17644,-0.0152 0.13209,-0.0177 -0.15016,-0.008 -1.43152,0.0132 0.24282,-0.0105 0.39816,-0.0216 0.79159,-0.0783 1.18761,-0.11872 -0.13238,-0.002 -0.26488,-0.0111 -0.39715,-0.005 -0.0824,0.004 0.16482,0.007 0.24719,0.0119 0.52746,0.0286 1.05762,0.0199 1.58352,-0.0317 0.24523,-0.0382 0.49232,-0.0928 0.73954,-0.11571 0.0564,-0.005 0.22583,-2.1e-4 0.16956,-0.006 -0.12786,-0.0135 -0.25764,-0.001 -0.38529,-0.0166 -0.0744,-0.009 0.14968,-0.002 0.22452,-0.003 0.58734,0.0103 1.19848,0.10483 1.74692,-0.16423 0.0579,-0.0159 0.0896,-0.0349 0.14621,-0.0224 0.0153,0.003 0.0587,0.0176 0.0432,0.0187 -0.31171,0.0219 -0.72452,-0.005 -0.26477,0.0275 0.0802,0.006 0.1604,0.0103 0.2406,0.0153 0.74653,0.0305 1.49845,0.0935 2.24185,-0.016 0.41694,-0.0872 0.83288,-0.18745 1.26006,-0.20303 0.16165,0.003 0.46749,0.007 0.35193,0.009 -0.1101,0.002 -0.22114,0.0107 -0.33029,-0.004 -0.29981,-0.0407 0.90158,-0.0208 0.59267,0.009 0.25874,0.0344 0.48672,0.13667 0.7422,0.18836 0.40522,0.082 0.84247,0.0603 1.24618,0.0916 -0.12575,0.002 -0.2516,0.001 -0.37722,0.007 -0.0596,0.003 0.11932,7e-4 0.17897,0.002 0.32495,0.008 0.64533,0.0635 0.96905,0.0904 0.58754,0.0802 1.17758,0.12147 1.76769,0.0561 0.0637,10e-4 0.76798,-0.008 0.39447,0.0184 -0.8051,0.0577 -0.10408,-0.0253 0.0503,0.0109 0.69806,0.0375 1.3988,0.11856 2.09808,0.0376 0.35613,-0.0462 0.70174,-0.17407 1.05594,-0.19466 0.1949,-0.0119 0.12164,-0.0105 0.30469,-0.0108 0.0476,-7e-5 0.19066,4.2e-4 0.143,3.4e-4 -0.77759,-0.001 -0.28558,0.003 -0.1157,-0.0136 0.004,-2.2e-4 0.19714,-0.0118 0.20961,-0.0106 0.42039,0.0417 0.75766,0.2571 1.21914,0.0958 0.45715,-0.0423 0.78467,-0.14155 1.19432,-0.34547 0.0164,-0.008 -0.0301,0.0212 -0.0452,0.0319 0.0229,-0.006 0.0451,-0.0211 0.0686,-0.019 0.01,8.4e-4 -0.0262,0.0263 -0.017,0.0236 0.20379,-0.0602 0.37625,-0.17691 0.56653,-0.26193 0.30062,-0.20004 0.59045,-0.41405 0.79543,-0.72296 0.20796,-0.39759 0.32668,-0.71125 0.19993,-1.16576 0.006,0.35629 0.10232,-0.33065 0.13777,-0.33101 0.1436,-0.6848 0.15363,-1.37321 0.12835,-2.07146 -0.01,-0.53602 -0.0311,-1.07197 -0.0185,-1.60804 -0.005,-0.51879 -0.002,-1.03748 -0.0116,-1.55622 0.007,-0.52279 0.0195,-1.04518 0.0513,-1.56693 0.0167,-0.64153 -9.9e-4,-1.28265 -0.0841,-1.91968 -0.0784,-0.73504 -0.10718,-1.47575 -0.22361,-2.20707 -0.0177,-0.56216 -0.0281,-1.12633 0.023,-1.68704 0.0515,-0.77781 0.0617,-1.55679 -0.0222,-2.33329 -0.0627,-0.77676 -0.16831,-1.55257 -0.10053,-2.33328 0.009,-0.74809 -0.0179,-1.49635 -0.0681,-2.24268 -0.0325,-0.62692 -0.008,-1.25281 0.0941,-1.87301 0.0528,-0.45156 0.0564,-0.41866 0.0794,-0.88035 0.006,-0.11076 7e-5,-0.22212 0.01,-0.33258 0.0292,-0.3324 0.12825,-0.65529 0.15726,-0.98788 0.13687,-0.87553 0.25623,-1.75525 0.25108,-2.644404 -0.0292,-0.609214 -0.0389,-1.211719 0.0666,-1.815284 0.0678,-0.589722 0.0207,-1.177572 0.0452,-1.769988 0.0247,-0.59689 0.0882,-1.188943 0.14693,-1.782803 0.006,-0.435769 -0.0113,-0.870869 -0.0353,-1.305858 8.7e-4,-0.316451 0.0831,-0.632213 0.0659,-0.950982 -0.003,-0.7086 -0.0758,-1.414531 -0.18602,-2.113723 0,-0.152755 -2.10434,-0.152755 -2.10434,0 z M 0.23848029,67.179478 c 0.33970296,0.73251 0.81293731,1.384232 1.30913261,2.008036 0.2385531,0.264189 0.6924711,0.813818 1.0395774,0.848599 -0.1163349,-0.0642 -0.2326698,-0.128388 -0.3490048,-0.192581 -0.024321,-0.02443 -0.074163,-0.108486 -0.072963,-0.07331 0.0011,0.03215 0.3782675,0.614573 0.3971115,0.643206 0.3308035,0.487116 0.7481101,0.885279 1.2282413,1.205659 0.2835599,0.130247 0.5379418,0.291807 0.7862448,0.482275 0.3398194,0.311175 0.735,0.539087 1.1294699,0.764096 0.3099652,0.127836 0.5814682,0.389284 0.9107194,0.462211 -0.4085437,-0.364808 0.069087,0.112928 0.168889,0.176176 0.136039,0.08621 0.2915535,0.133496 0.4373302,0.200244 0.3454995,-0.06999 0.6994467,-0.10435 1.0364987,-0.209959 0.1213474,-0.03802 0.4891956,-0.36166 0.5876555,-0.442931 0.2726701,-0.225068 0.5130804,-0.440939 0.7470292,-0.710152 0.2244458,-0.233777 0.3455698,-0.551126 0.544434,-0.803756 0.0042,-0.0054 0.01484,0.0033 0.02002,-0.0012 0.03692,-0.03147 0.06861,-0.06906 0.102913,-0.103596 0.379275,-0.325474 0.673508,-0.72373 0.947883,-1.144865 0.330058,-0.535042 0.706899,-1.033082 1.085318,-1.531282 0.344093,-0.528185 0.630327,-1.090991 0.920617,-1.651899 0.01359,-0.02249 0.359459,-0.51667 0.39399,-0.484596 0.08144,0.07564 -0.135578,0.07067 0.08483,0.04642 0.583032,-0.238524 -0.365225,0.157267 0.381668,-0.189039 0.04398,-0.02039 0.09496,-0.02142 0.138365,-0.04312 0.214019,-0.106976 0.394774,-0.274243 0.579703,-0.425855 0.06005,-0.06948 0.123566,-0.135871 0.180145,-0.208442 0.05179,-0.06642 0.12723,-0.199298 0.199536,-0.27343 0.07823,-0.0802 0.174363,-0.148909 0.258808,-0.221286 0.01751,0.0074 0.03394,0.02566 0.05256,0.02224 0.189563,-0.0349 0.707993,-0.365195 0.877165,-0.482367 0.04296,-0.02848 0.140945,-0.136967 0.128863,-0.08545 -0.07032,0.299816 -0.849222,0.07762 -1.086439,0.03201 -0.05721,-0.011 -0.08601,-0.135589 -0.138837,-0.110179 -0.04691,0.02256 0.03389,0.101671 0.05089,0.152488 0.02946,0.08808 0.059,0.176137 0.0885,0.264206 0.175469,0.6662 0.424485,1.326532 0.795664,1.903626 0.09547,0.148437 0.207438,0.284619 0.311156,0.42693 0.413775,0.4959 0.945515,0.864976 1.365225,1.35366 0.285445,0.511652 0.546976,1.003277 0.918122,1.456935 0.399962,0.443654 0.875457,0.790282 1.410883,1.030023 0.398381,0.233967 0.751293,0.543766 1.129852,0.810964 0.506151,0.374797 1.01353,0.73838 1.571287,1.02563 0.389478,0.199523 0.775578,0.406001 1.163695,0.608346 0.207301,0.106654 0.385722,0.261344 0.582175,0.38666 0.06482,0.04136 0.122709,0.102819 0.196978,0.119715 0.331356,0.07538 0.671125,0.102747 1.006687,0.154121 0.203406,-0.156788 0.422693,-0.293395 0.61022,-0.470362 0.09669,-0.09125 0.160576,-0.214471 0.234299,-0.326599 0.310927,-0.472904 0.486543,-1.012062 0.670988,-1.547218 0.106586,-0.191896 0.06054,-0.488175 0.219846,-0.653721 0.05031,-0.05227 0.11667,-0.08557 0.167648,-0.13712 0.05977,-0.06045 0.115872,-0.124698 0.17381,-0.187048 0.482192,-0.463069 0.848555,-1.032725 1.184004,-1.614665 0.09098,-0.251584 0.277367,-0.396397 0.455174,-0.572418 0.195787,-0.19382 0.311208,-0.308062 0.526315,-0.477305 -0.01692,0.01114 0.253554,-0.152305 0.22175,-0.08875 -0.01304,0.02605 -0.0697,0.03514 -0.05958,0.06256 0.01174,0.03179 0.144827,-0.02329 0.316304,-0.08091 0.21009,-0.09067 0.165906,-0.05828 0.379366,-0.221275 0.04283,-0.0327 0.08016,-0.07266 0.122034,-0.106667 0.0097,-0.0078 0.04218,-0.0258 0.03214,-0.0185 -0.102566,0.07448 -0.185364,0.208091 -0.309858,0.220186 -0.273929,0.02662 -0.545668,-0.07371 -0.818504,-0.110556 -0.03848,-0.02807 -0.09968,-0.13032 -0.11546,-0.08423 -0.02008,0.05866 0.05743,0.109306 0.0887,0.162392 0.299035,0.507766 0.628256,0.977902 1.002205,1.428591 0.490546,0.605315 1.074301,1.10748 1.737205,1.492637 0.368738,0.141128 0.631871,0.399568 0.908565,0.675888 0.389218,0.373977 0.818609,0.700294 1.250913,1.017943 0.458035,0.325321 0.897764,0.675018 1.33331,1.031947 0.465469,0.426021 0.928347,0.850936 1.451341,1.199128 0.398144,0.235213 0.822164,0.449288 1.272435,0.551418 0.472086,0.185322 0.811683,0.242166 1.370833,0.04684 0.08578,-0.02996 0.459943,-0.40848 0.586745,-0.534182 0.450222,-0.525462 0.898873,-1.04933 1.338197,-1.584962 0.157739,-0.261934 0.406034,-0.367744 0.649004,-0.515424 0.07205,-0.0438 0.142156,-0.09096 0.213234,-0.136429 0.08766,-0.05199 0.175324,-0.103973 0.262986,-0.155958 0.106456,-0.07333 0.215779,-0.142327 0.319367,-0.219984 0.0072,-0.0055 0.549226,-0.4473 0.576592,-0.468762 0.231624,-0.181656 0.477613,-0.338927 0.717836,-0.507571 0.467785,-0.346426 0.968478,-0.64656 1.482472,-0.91337 0.413094,-0.270543 0.859095,-0.476691 1.269668,-0.749677 0.04817,-0.0299 0.09316,-0.06622 0.144501,-0.08972 0.111179,-0.05089 0.233625,-0.06957 0.348544,-0.110472 0.279767,-0.09956 0.550416,-0.216156 0.833243,-0.306577 0.611534,-0.229607 1.185829,-0.566797 1.667177,-1.021885 0.301421,-0.337076 0.613706,-0.665142 0.955326,-0.958104 0.07178,0.001 0.108279,-0.133688 0.184538,-0.144592 0.01076,-0.0015 -0.0039,0.02402 -0.01193,0.03158 -0.03563,0.03336 -0.06852,0.0823 -0.116092,0.08825 -0.619026,0.07756 -0.506708,0.124451 -0.779289,-0.04434 0.0086,0.0016 0.02668,0.01377 0.02564,0.0048 -0.0012,-0.01 -0.02513,-0.02172 -0.02645,-0.01182 -0.0023,0.01712 0.01273,0.03213 0.02185,0.04657 0.04304,0.06819 0.08874,0.134501 0.134306,0.200883 0.439905,0.640999 -0.04209,-0.07956 0.467857,0.69009 0.459405,0.736597 0.956896,1.458307 1.29583,2.266278 0.194541,0.634682 0.358874,1.277857 0.595822,1.897438 0.202696,0.528679 0.500339,0.994761 0.831447,1.442612 0.232249,0.312818 0.469743,0.61406 0.667897,0.951596 0.33543,0.473244 0.710701,0.920178 1.11309,1.333043 0.623357,0.574242 0.926899,0.73242 1.825518,0.543923 0.09596,-0.02012 0.163012,-0.112913 0.244519,-0.169369 0.374556,-0.172637 0.722496,-0.424799 1.058517,-0.673959 0.467739,-0.337872 0.828487,-0.804144 1.241588,-1.205281 0.18246,-0.177177 0.277559,-0.228756 0.481038,-0.365632 0.56787,-0.246991 1.175172,-0.368689 1.75297,-0.58479 0.184316,-0.06893 0.364083,-0.150417 0.546126,-0.225627 0.664088,-0.292498 1.356152,-0.517776 2.020027,-0.810092 0.395759,-0.174259 0.513239,-0.257747 0.886986,-0.4771 0.67065,-0.429806 1.114186,-1.106957 1.606043,-1.726667 0.348528,-0.384461 0.717819,-0.760892 1.139168,-1.059523 0.546962,-0.326547 1.049947,-0.734906 1.554179,-1.129205 0.497336,-0.378982 0.989058,-0.771972 1.516343,-1.105398 0.0045,0.02219 0.03281,0.0071 0.04323,0.01926 0.0065,0.0076 -0.01193,0.03151 -0.0022,0.03063 0.131106,-0.01179 0.272752,-0.07149 0.404485,-0.09571 0.446033,-0.24713 0.08796,-0.03993 0.394071,-0.233798 0.02326,-0.01474 0.08725,-0.06422 0.07154,-0.04105 -0.155388,0.229198 -0.528405,0.198987 -0.794404,0.15463 -0.156766,-0.02614 -0.270542,-0.17313 -0.405814,-0.259696 -0.0199,-0.01472 -0.05668,-0.06936 -0.05968,-0.04413 -0.0056,0.04733 0.03161,0.08955 0.04906,0.133659 0.03197,0.08087 0.06554,0.16106 0.09914,0.241217 0.155219,0.370275 0.302167,0.743624 0.452582,1.116103 0.340552,0.771847 0.633266,1.573966 1.049276,2.307327 0.24416,0.430413 0.330249,0.524704 0.604282,0.890875 0.198229,0.203378 0.626763,0.692151 0.922534,0.749412 0.313476,0.06069 0.64357,-0.0402 0.956235,0.02486 0.197101,0.04101 -0.400693,0.06441 -0.601146,0.04903 -0.08618,-0.0066 -0.156909,-0.07546 -0.235363,-0.113189 0.425844,0.576119 0.878682,1.130312 1.339487,1.676309 0.316589,0.360106 0.667393,0.697293 1.075647,0.942617 0.09062,0.05446 0.174345,0.134415 0.277466,0.152826 0.317837,0.05674 0.643432,0.04602 0.96515,0.06903 0.709661,-0.350838 -0.101953,0.06087 0.366124,-0.200088 0.01164,-0.0065 0.05131,-0.01234 0.03823,-0.01065 -0.305335,0.03917 -0.608461,0.100306 -0.91532,0.123183 -0.03461,0.0025 -0.111534,-0.07879 -0.09335,-0.04799 0.02592,0.04389 0.07954,0.0613 0.119305,0.09195 0.260365,0.185706 0.767154,0.671667 1.060094,0.710659 0.34526,0.04595 0.696025,-0.01277 1.044038,-0.01916 0.157714,-0.09471 0.319834,-0.181864 0.473144,-0.284116 0.116752,-0.07787 0.219438,-0.177118 0.335884,-0.255479 0.447892,-0.301403 0.981658,-0.529496 1.464407,-0.765784 0.604462,-0.224019 1.157836,-0.452107 1.72483,-0.773101 0.956646,-0.595226 1.871651,-1.257184 2.801552,-1.895938 0.550289,-0.43517 1.196034,-0.700522 1.795843,-1.046959 0.432875,-0.250019 0.44162,-0.27503 0.840818,-0.574381 0.631623,-0.487385 1.137134,-1.12534 1.581578,-1.795151 0.198203,-0.312612 0.415118,-0.6095 0.649653,-0.894211 0.171712,-0.245892 0.425022,-0.315072 0.671534,-0.448675 0.350697,-0.255807 0.640024,-0.574906 0.856303,-0.957269 -0.278032,0.534431 -0.229482,0.350115 -1.047252,0.269415 0.652226,0.985596 1.38927,1.904642 2.160958,2.790227 -0.01409,0.06824 0.438634,0.46927 0.47278,0.587677 0.03858,0.133789 0.0634,0.271521 0.09916,0.406158 0.21974,0.772994 0.54003,1.511866 0.864457,2.242315 0.262014,0.665076 0.627853,1.270651 0.968,1.892413 0.180751,0.387511 0.25599,0.814177 0.356153,1.228814 0.149855,0.467241 0.327961,0.973237 0.724773,1.278929 0.110429,0.08507 0.23864,0.141718 0.357962,0.212578 0.345645,-0.0079 0.694727,0.02753 1.036938,-0.02366 0.115069,-0.01722 0.204523,-0.115307 0.304524,-0.177033 0.386231,-0.238381 0.717741,-0.554786 1.056621,-0.858355 0.70556,-0.629241 1.34788,-1.333402 1.8564,-2.144309 0.18865,-0.166517 0.20567,-0.477782 0.37805,-0.652742 0.0706,-0.0716 0.058,0.110486 0.10651,0.129729 0.0772,0.03061 0.16513,0.002 0.24769,0.0032 0.71161,-0.08285 1.47836,-0.217945 2.07241,-0.668644 0.11062,-0.08392 0.20527,-0.188572 0.30791,-0.282858 0.20082,-0.09485 0.41213,-0.61545 0.58006,-0.712707 0.0278,-0.01611 0.0613,0.02532 0.093,0.02264 0.0557,-0.0047 0.10792,-0.0294 0.16188,-0.0441 0.49033,-0.155875 0.99316,-0.331276 1.41783,-0.640944 0.11061,-0.08066 0.20966,-0.177274 0.31449,-0.265912 0.36813,-0.307909 0.59616,-0.853707 0.96717,-1.145228 0.0208,-0.0042 0.0428,-0.02053 0.0625,-0.01245 0.014,0.0057 7.3e-4,0.03892 0.0148,0.04411 0.0651,0.02395 0.34019,-0.09959 0.45897,-0.108281 0.10947,0.02683 0.22195,-0.05203 0.3215,-0.09356 0.0209,-0.0087 0.0852,-0.02699 0.0628,-0.02561 -0.82508,0.05077 -0.47235,0.170656 -0.91252,-0.03138 -0.0296,-0.0189 -0.0797,-0.09163 -0.0888,-0.05673 -0.0112,0.04301 0.0494,0.07287 0.0754,0.108302 0.067,0.09147 0.13499,0.182305 0.20382,0.272363 0.23475,0.307137 0.47637,0.605331 0.70222,0.919872 0.4644,0.775496 0.7128,1.674763 0.95988,2.546329 0.16492,0.59812 0.36642,1.18417 0.78762,1.638827 0.34014,0.27637 0.6322,0.610211 0.92469,0.939048 0.44032,0.447182 0.68775,1.040835 1.02725,1.565581 0.28931,0.397279 0.62967,0.756676 1.04177,1.012324 0.47136,0.218738 0.87485,0.267226 1.4234,0.210346 0.1289,-0.01337 0.24299,-0.09365 0.36448,-0.140472 0.68461,-0.463401 1.21321,-1.135135 1.74643,-1.771376 0.35759,-0.397629 0.62297,-0.867495 0.93502,-1.301598 0.0401,-0.03548 0.0831,-0.06776 0.12028,-0.10644 0.0536,-0.05563 0.0958,-0.122839 0.15164,-0.17588 0.10643,-0.100876 0.23515,-0.162816 0.35629,-0.24021 0.82756,-0.528742 -0.30303,0.177335 0.55056,-0.352917 0.56646,-0.333914 1.03445,-0.803487 1.53198,-1.230636 0.26823,-0.240475 0.5455,-0.477137 0.84625,-0.673139 0.29773,-0.30743 0.66828,-0.510241 0.97516,-0.802917 0.29059,-0.316434 0.6171,-0.594237 0.92024,-0.898389 0.10296,-0.08243 0.14902,-0.220931 0.243,-0.312508 0.007,-0.0067 -0.0125,0.02266 -0.005,0.02906 0.008,0.0067 0.0327,-0.01774 0.0285,-0.0084 -0.0255,0.05669 -0.10642,0.116971 -0.14778,0.152973 0.12004,0.03815 0.59838,-0.329663 0.41348,-0.134398 -0.005,0.01188 -0.0283,0.03564 -0.0157,0.03563 0.0481,-3e-5 0.0933,-0.0246 0.14013,-0.03572 0.0592,-0.01405 0.12231,-0.01021 0.1798,-0.03059 0.12498,-0.04432 0.24379,-0.105824 0.36711,-0.154948 0.31843,-0.06765 0.51546,0.240229 -0.7369,-0.02954 -0.10675,-0.02299 -0.15684,-0.168763 -0.2593,-0.207514 -0.0345,-0.01304 0.004,0.07671 0.0119,0.113952 0.0216,0.09832 0.0514,0.194479 0.0773,0.29172 0.12148,0.548153 0.29175,1.083662 0.39563,1.636148 0.02,0.364946 0.0937,0.719086 0.17441,1.074037 0.0208,0.23643 0.007,0.474057 -0.006,0.710522 -0.0111,0.259547 -0.0213,0.525778 -0.0386,0.780117 -0.0472,0.139634 -0.083,0.284601 -0.10599,0.430722 -0.01,0.06378 -0.002,0.131918 -0.0243,0.192241 -0.008,0.0212 -0.0156,-0.04247 -0.0233,-0.06371 -0.21501,0.359793 -0.28866,0.77492 -0.30829,1.191712 0.0206,0.51839 0.074,1.033551 0.14259,1.547263 0.0407,0.316961 0.1256,0.625683 0.10511,0.946907 -0.0934,0.458799 -0.0787,0.926736 -0.073,1.3922 -0.035,0.502696 0.066,0.989558 0.17432,1.475434 0.0536,0.171691 0.0517,0.333219 0.0307,0.508183 -0.0397,0.337881 -0.0477,0.678492 -0.0602,1.018288 -9.9e-4,0.408317 0.0211,0.815877 0.0149,1.224245 0.0283,0.414586 -0.0894,0.811347 -0.15352,1.216702 -0.009,0.09733 -0.02,0.194487 -0.0274,0.291974 -0.0172,0.228026 -0.0232,0.356521 -0.0162,0.582593 0.006,0.189153 0.0413,0.376369 0.0182,0.564691 -0.0482,0.303958 -0.0847,0.608549 -0.0965,0.916439 -0.0261,0.465815 0.0183,0.921545 0.1022,1.378949 0.0371,0.181684 0.0747,0.363278 0.10808,0.545758 0.002,0.149564 2.03264,0.121705 2.03074,-0.02786 v 0 c 0.0107,-0.287769 9.1e-4,-0.574801 -0.0499,-0.858921 -0.0554,-0.314091 -0.15132,-0.619866 -0.16781,-0.939175 0.0299,-0.30638 0.1433,-0.600914 0.15029,-0.91153 0.0138,-0.42764 -9.2e-4,-0.857604 0.0563,-1.282837 0.0528,-0.492264 0.15763,-0.979977 0.12781,-1.478145 -0.007,-0.415401 0.005,-0.830978 -0.0116,-1.246191 -0.0172,-0.263996 -0.0421,-0.529395 -0.0103,-0.793267 0.0359,-0.353101 0.063,-0.70798 0.004,-1.060802 -0.0603,-0.380022 -0.15249,-0.753857 -0.13358,-1.142928 -0.003,-0.388095 0.0183,-0.776143 0.006,-1.164305 0.0672,-0.479437 0.0839,-0.966485 0.0153,-1.447342 -0.0674,-0.411702 -0.17945,-0.809847 -0.24279,-1.22188 -0.0364,-0.107522 0.22278,-0.44334 0.22112,-0.589781 0.0718,-0.313107 0.14599,-0.622259 0.2293,-0.932289 0.036,-0.306179 0.0115,-0.597333 0.0446,-0.902486 0.0387,-0.400807 0.0651,-0.805589 -0.01,-1.204328 -0.0518,-0.311015 -0.13985,-0.613179 -0.13536,-0.932004 -0.004,-0.158397 0.002,-0.317205 -0.009,-0.475239 -0.0381,-0.551318 -0.1958,-1.083636 -0.35534,-1.607274 -0.15793,-0.383745 -0.44873,-1.162896 -0.8411,-1.327017 -0.58565,-0.244955 -0.95345,-0.190364 -1.42976,0.02199 -0.11367,0.0469 -0.27946,0.03974 -0.45566,0.11374 -0.0554,0.02807 -0.11111,0.0553 -0.16607,0.08422 -0.21467,0.112949 0.0816,-0.05952 0.0834,-0.06486 0.017,-0.05207 -0.16501,0.06597 -0.15777,0.01466 -0.45306,0.1699 -0.71144,0.382022 -1.04714,0.732906 -0.27745,0.270563 -0.55335,0.544193 -0.83316,0.811138 -0.30483,0.212655 -0.57998,0.465969 -0.8728,0.695597 -0.30273,0.232796 -0.58502,0.492703 -0.89798,0.710441 -0.50244,0.361841 -1.03394,0.679717 -1.5198,1.067546 -0.57444,0.419979 -1.12293,0.879198 -1.53796,1.476337 -0.0903,0.138374 -0.17363,0.281524 -0.26468,0.419314 -0.16154,0.244459 -0.40804,0.417245 -0.60128,0.630607 -0.37058,0.389017 -0.75558,0.797589 -1.04798,1.256154 -0.005,0.0077 0.0162,-0.0077 0.0243,-0.01156 0.13281,-0.161986 0.0211,-0.03467 0.56584,0.02685 0.0197,0.0022 -0.0385,0.01051 -0.0582,0.01256 -0.0879,0.0091 -0.17193,-0.01507 -0.25273,-0.04858 0.10454,0.114502 0.0739,0.07432 0.16891,0.207096 0.0136,0.01903 -0.0293,-0.03642 -0.0423,-0.05591 -0.0826,-0.12399 -0.16445,-0.24875 -0.23579,-0.380269 -0.36787,-0.667599 -0.7408,-1.336009 -1.23581,-1.912683 -0.23551,-0.236691 -0.46591,-0.480411 -0.72242,-0.693025 -0.006,-0.0045 -0.40049,-0.317561 -0.44668,-0.327569 -0.0378,-0.0082 0.0369,0.07086 0.0554,0.106289 0.0193,0.03946 0.0207,0.09022 0.0503,0.122066 0.0163,0.01754 -0.0125,-0.04704 -0.0181,-0.07069 -0.065,-0.269257 -0.0908,-0.5461 -0.13567,-0.819333 -0.23535,-1.164759 -0.62017,-2.311515 -1.26266,-3.30417 -0.27876,-0.364513 -0.56446,-0.71305 -0.89462,-1.029254 -0.0675,-0.0647 -0.14619,-0.116051 -0.21383,-0.180673 -0.71853,-0.68652 0.44362,0.346096 -0.5228,-0.496925 -0.12356,-0.05878 -0.23548,-0.162704 -0.37069,-0.176323 -0.26595,-0.02679 -0.53307,0.03896 -0.79962,0.05843 -0.0171,0.0021 -0.0343,0.0066 -0.0515,0.0063 -0.0263,-3.72e-4 -0.0496,-0.02581 -0.0759,-0.02294 -0.0681,0.0074 -0.13434,0.02785 -0.20151,0.04177 -0.48178,0.137217 -0.95981,0.281362 -1.32477,0.663347 -0.27742,0.312758 -0.53116,0.654752 -0.83591,0.93774 -0.51297,0.283598 -1.10075,0.399644 -1.58816,0.741043 -0.11465,0.08571 -0.23911,0.158707 -0.34393,0.257124 -0.22804,0.214135 -0.34368,0.514597 -0.62362,0.655985 -0.18834,0.02396 -0.38235,0.08436 -0.56664,0.125487 -0.45066,0.100571 -0.90668,0.182412 -1.34253,0.343661 -0.45764,0.209001 -0.555,0.20706 -0.93673,0.584835 -0.22726,0.224912 -0.33694,0.555991 -0.58394,0.764465 -0.60936,0.620788 -1.239388,1.222295 -1.770304,1.920485 -0.188529,0.224171 -0.369232,0.414736 -0.590213,0.600211 -0.01457,0.01224 0.0306,-0.02248 0.0459,-0.03372 0.266454,0.01343 0.532903,0.02684 0.799351,0.04027 0.04664,0.05026 0.09902,0.09542 0.14006,0.150767 0.02927,0.0395 0.08139,0.173114 0.04343,0.142737 -0.08187,-0.06539 -0.07465,-0.215493 -0.119608,-0.301979 -0.104549,-0.600103 -0.25265,-1.182038 -0.505369,-1.736065 -0.309333,-0.605323 -0.509395,-1.255172 -0.781224,-1.879135 -0.211132,-0.41837 -0.403404,-0.847398 -0.626503,-1.259082 -0.0549,-0.101324 -0.114899,-0.199565 -0.172348,-0.299347 -0.03538,-0.05077 -0.07569,-0.09817 -0.106147,-0.152289 -0.02574,-0.04576 -0.041,-0.0971 -0.06149,-0.145652 -0.02602,-0.08988 -0.06661,-0.175449 -0.08499,-0.267349 -0.01853,-0.09262 -0.02226,-0.187937 -0.03936,-0.280857 -0.07893,-0.429147 -0.238481,-0.828135 -0.450375,-1.205091 -0.111887,-0.182632 -0.21464,-0.371698 -0.335662,-0.547898 -0.299027,-0.435365 -0.618799,-0.80506 -0.964269,-1.200631 -0.452578,-0.518214 -0.915946,-1.026455 -1.485424,-1.408963 -0.381961,-0.101333 -0.756328,-0.241442 -1.14588,-0.304008 -0.09269,-0.01489 -0.183844,0.04199 -0.271637,0.07634 -0.283146,0.110798 -0.498331,0.33038 -0.669551,0.582709 0.0068,-0.0189 0.03925,-0.06236 0.02064,-0.05667 -0.03531,0.01079 -0.05366,0.0527 -0.08305,0.07575 -0.114465,0.08975 -0.231655,0.184435 -0.361813,0.250865 -0.408978,0.257788 -0.789072,0.557092 -1.078059,0.959443 -0.23145,0.298982 -0.454792,0.605962 -0.705218,0.887701 -0.406885,0.447127 -0.793456,0.927925 -1.302086,1.254254 -0.901281,0.526687 -1.874934,0.918412 -2.721724,1.546295 -0.892123,0.615829 -1.755962,1.27174 -2.61313,1.938842 -0.169026,0.111546 -0.248914,0.178241 -0.427361,0.251275 -0.388285,0.158919 -0.814954,0.179819 -1.19664,0.361385 -0.497354,0.234323 -0.95658,0.486597 -1.392251,0.833872 -0.120826,0.09631 -0.233543,0.203218 -0.348194,0.307395 -0.05533,0.05029 -0.11965,0.09317 -0.161678,0.155898 -0.0136,0.02029 0.04612,-0.01189 0.06918,-0.01784 0.244702,0.0169 0.494047,-0.0015 0.73411,0.05072 0.05074,0.01104 0.104636,0.07657 0.09359,0.129312 -0.0091,0.04323 -0.07097,-0.04876 -0.104883,-0.0754 -0.182002,-0.143003 -0.358168,-0.294376 -0.544798,-0.431166 -0.10241,-0.0687 -0.515182,-0.350489 -0.568416,-0.355775 -2.83768,-0.28174 -0.643608,-0.08388 -1.202841,0.120909 -0.009,0.0033 0.01131,-0.01582 0.01695,-0.02372 0.03536,-0.02186 0.07073,-0.04371 0.106092,-0.06558 0.271173,0.03 0.544911,0.04099 0.813518,0.09 0.03263,0.006 0.06538,0.0377 0.07183,0.07154 0.01699,0.08914 -0.131313,-0.120172 -0.190592,-0.186848 -0.141403,-0.159051 -0.314277,-0.377789 -0.442284,-0.535876 -0.591351,-0.694723 -1.15528,-1.444191 -1.90093,-1.967152 -0.346802,-0.187218 -1.41496,-0.831697 -1.251215,-0.2136 0.07199,0.271732 0.54578,-0.0066 0.810324,0.05292 0.08208,0.01846 0.122573,0.120199 0.1902,0.172044 0.04991,0.03826 -0.214119,-0.245017 -0.111283,-0.155068 -0.220657,-0.457116 -0.462625,-0.900936 -0.693805,-1.35235 -0.192659,-0.376195 -0.362114,-0.76498 -0.555657,-1.140682 -0.08494,-0.164903 -0.182967,-0.322133 -0.27445,-0.483199 -0.343984,-0.685433 -0.657092,-1.401051 -1.163426,-1.978071 -0.166303,-0.114004 -0.303666,-0.301442 -0.498909,-0.342015 -0.267049,-0.05549 -0.545828,0.02127 -0.814237,0.06913 -0.08075,0.01439 -0.146564,0.0763 -0.21949,0.115182 -0.03389,0.01807 -0.131904,0.07453 -0.10527,0.04618 0.02268,-0.02414 0.05225,-0.04 0.07839,-0.06001 -0.28903,0.06163 -0.587005,0.07237 -0.860166,0.220386 -0.713228,0.302709 -1.33845,0.760934 -1.907588,1.299223 -0.456189,0.416551 -0.948737,0.779701 -1.459418,1.120243 -0.501363,0.409733 -0.969135,0.860841 -1.373287,1.376121 -0.36711,0.41151 -0.710644,0.868059 -1.201979,1.124726 -0.923048,0.418772 -1.91749,0.653541 -2.825435,1.116261 -0.308566,0.134891 -0.613962,0.277655 -0.923776,0.409406 -0.554123,0.235648 -1.135461,0.418023 -1.632361,0.778018 -0.123469,0.09474 -0.251365,0.183508 -0.370405,0.284203 -0.494607,0.418381 -0.89079,0.943858 -1.383817,1.36357 -0.269169,0.231626 -0.527643,0.477059 -0.810763,0.690352 0.0512,-0.03687 0.09206,-0.100846 0.153601,-0.110605 0.217123,-0.03445 0.762975,-0.198021 0.952286,0.115621 0.04195,0.0695 -0.493311,-0.463061 -0.172952,-0.167953 -0.328068,-0.364678 -0.652634,-0.728934 -1.009316,-1.063547 -0.254105,-0.277964 -0.36057,-0.683854 -0.64395,-0.943767 -0.211624,-0.331203 -0.488551,-0.619963 -0.59333,-1.015724 -0.199263,-0.640686 -0.421635,-1.272259 -0.566697,-1.930512 -0.332962,-1.041626 -0.785635,-2.034148 -1.479371,-2.873407 -0.450016,-0.49752 -0.883646,-1.062178 -1.456751,-1.407586 -0.07761,-0.03818 -0.14755,-0.104442 -0.232833,-0.114529 -0.836415,-0.09895 -1.056339,0.002 -1.647407,0.477994 -0.33461,0.283254 -0.644465,0.594356 -0.945755,0.914571 -0.413146,0.224752 -0.81196,0.476442 -1.269539,0.597981 -0.527073,0.223338 -1.044764,0.468706 -1.539432,0.762569 -0.417272,0.213927 -0.825803,0.444745 -1.247204,0.650095 -0.550011,0.311262 -1.08646,0.646177 -1.599865,1.019631 -0.559312,0.352908 -1.069406,0.77476 -1.593698,1.180316 -0.519013,0.363559 -1.069687,0.679028 -1.480131,1.186062 -0.465925,0.5071 -0.924578,1.028511 -1.273393,1.632649 -0.202065,0.297095 -0.0254,0.0065 0.124196,-0.02578 0.241639,-0.05208 0.492103,-0.04371 0.738823,-0.0483 0.0291,-5.4e-4 0.05091,0.117435 -0.04708,0.02665 -0.307063,-0.155935 -0.62779,-0.280931 -0.931505,-0.445214 -0.479745,-0.293533 -0.927515,-0.64216 -1.324274,-1.049327 -0.452497,-0.360668 -0.875091,-0.762166 -1.366603,-1.066901 -0.353059,-0.280082 -0.727462,-0.525712 -1.103582,-0.770495 -0.373231,-0.417415 -0.7446,-0.839596 -1.245285,-1.096059 -0.126201,-0.06735 -0.259567,-0.120114 -0.383065,-0.19269 -0.341479,-0.200678 -0.549735,-0.605871 -0.818612,-0.885962 -0.182204,-0.213 -0.372801,-0.418325 -0.549671,-0.63615 -0.338287,-0.416618 -0.655785,-0.854863 -1.059077,-1.20954 -0.33082,-0.06787 -0.655329,-0.209423 -0.99246,-0.203624 -0.422457,0.0072 -0.319278,0.177716 -0.526413,0.287683 -0.0029,0.0015 0.109505,-0.0952 0.03272,-0.07992 0.05464,-0.05357 0.07247,-0.05824 -0.10145,-0.02012 -0.27112,0.05942 -0.530305,0.167454 -0.77085,0.310112 -0.09175,0.05442 -0.179385,0.116056 -0.269077,0.174084 -0.552225,0.439487 -1.024522,0.949567 -1.367137,1.585326 -0.296437,0.463846 -0.624288,0.90482 -0.973095,1.327254 -0.193549,0.221654 -0.396548,0.435481 -0.55173,0.690051 -0.172984,0.283777 -0.289426,0.602377 -0.417627,0.90893 -0.121956,0.327705 -0.22397,0.66137 -0.343295,0.989821 -0.02885,0.07942 -0.06612,0.155489 -0.09221,0.235933 -0.0072,0.02226 -0.02755,0.07987 -0.007,0.07009 0.153111,-0.07303 0.288013,-0.181851 0.432019,-0.272776 0.272658,0.05471 1.051523,0.327362 0.816091,0.174021 -0.255046,-0.166114 -0.444641,-0.434428 -0.721811,-0.569574 -0.187915,-0.104841 -0.381737,-0.183035 -0.570971,-0.283242 -0.160827,-0.08516 -0.194691,-0.123829 -0.36802,-0.225446 -0.06665,-0.03907 -0.135987,-0.07291 -0.20398,-0.109378 -0.479293,-0.283172 -0.948365,-0.577104 -1.398816,-0.909705 -0.469102,-0.337074 -0.944607,-0.666874 -1.436032,-0.967388 -0.302463,-0.140669 -0.602153,-0.272472 -0.829851,-0.537416 -0.06417,-0.06646 -0.223892,-0.226636 -0.279142,-0.304102 -0.229266,-0.321457 -0.374013,-0.694294 -0.581489,-1.029458 -0.377101,-0.540882 -0.834335,-0.995539 -1.305577,-1.447113 -0.485956,-0.542506 -0.722926,-1.088855 -0.920726,-1.799794 -0.126718,-0.284513 -0.446864,-1.059024 -0.712128,-1.182734 -0.831454,-0.387762 -1.099077,-0.351099 -1.720139,0.01158 -0.418794,0.204671 -0.84482,0.406133 -1.181798,0.746407 -0.10392,0.111939 -0.144434,0.153144 -0.243373,0.269358 -0.03911,0.04594 -0.180395,0.281332 -0.248219,0.268288 -0.230835,0.155911 -0.493314,0.257077 -0.747936,0.364461 -0.581864,0.291914 -1.036956,0.760949 -1.335925,1.358858 -0.239134,0.454326 -0.464041,0.92506 -0.785328,1.323946 -0.434481,0.53498 -0.8026492,1.112487 -1.1523791,1.709994 -0.2017534,0.324791 -0.4151434,0.629242 -0.6895328,0.893817 -0.2528563,0.276285 -0.4681524,0.587399 -0.7425726,0.842083 -0.2162219,0.194158 -0.4290444,0.390897 -0.6388273,0.592594 -0.3442972,0.331026 -0.3845454,0.260612 0.5578046,0.125791 0.2467054,0.204166 0.1902067,0.128628 0.3532452,0.352163 0.022503,0.03086 -0.047083,-0.06001 -0.071369,-0.08936 -0.1796053,-0.217049 -0.3727689,-0.424213 -0.6406308,-0.519074 -0.026856,-0.0063 -0.094054,-0.04386 -0.080571,-0.01886 0.026053,0.0483 0.1651318,0.139349 0.1212359,0.108063 C 7.3481825,71.41696 7.2328723,71.260758 7.0603253,71.189397 6.7327699,70.977311 6.3772199,70.833768 6.0556049,70.611966 5.7588465,70.365602 5.471013,70.096988 5.1188929,69.93864 4.812583,69.809854 4.5833803,69.565182 4.3762021,69.303583 4.2088395,69.085819 4.059161,68.853521 3.8863383,68.640484 3.8115756,68.548326 3.7519036,68.43938 3.6602374,68.365614 3.5113741,68.245821 3.3360739,68.166703 3.1739922,68.067248 c -0.019742,-9.21e-4 -0.074893,-0.01531 -0.059225,-0.0027 0.1463077,0.117112 0.3034667,0.218875 0.4588045,0.322608 0.00496,0.0034 -0.0076,-0.02189 -0.00291,-0.01816 0.035568,0.02833 0.164284,0.267822 -0.047408,-0.122364 -0.031705,-0.05844 -0.06747,-0.11438 -0.1012053,-0.17157 C 3.029039,67.381697 2.6147748,66.697407 2.0469646,66.14119 1.9764726,66.007995 0.16798393,67.046351 0.23847683,67.179546 Z" />
  </g>
</svg>
